HIERARCHY
ROOT newVegas:Hips
{
	OFFSET 0.000000 96.479958 0.000000
	CHANNELS 6 Xposition Yposition Zposition Xrotation Yrotation Zrotation
	JOINT newVegas:Pelvis
	{
		OFFSET 0.000000 0.000000 0.000000
		CHANNELS 3 Xrotation Yrotation Zrotation
		JOINT newVegas:LeftUpLeg
		{
			OFFSET 18.735201 -5.666702 -4.541200
			CHANNELS 3 Xrotation Yrotation Zrotation
			JOINT newVegas:LeftLeg
			{
				OFFSET -0.021200 -31.938179 0.493100
				CHANNELS 3 Xrotation Yrotation Zrotation
				JOINT newVegas:LeftFoot
				{
					OFFSET 0.021200 -31.938179 -4.336299
					CHANNELS 3 Xrotation Yrotation Zrotation
					JOINT newVegas:LeftToeBase
					{
						OFFSET 0.943001 -26.722000 15.023500
						CHANNELS 3 Xrotation Yrotation Zrotation
						End Site
						{
							OFFSET 0.000000 30.670183 0.000000
						}
					}
				}
				JOINT newVegas:Left_PantLeg
				{
					OFFSET 0.663870 -9.044666 -1.108900
					CHANNELS 3 Xrotation Yrotation Zrotation
					End Site
					{
						OFFSET 1.415995 20.635357 0.000000
					}
				}
			}
		}
		JOINT newVegas:RightUpLeg
		{
			OFFSET -18.735201 -5.666702 -4.541200
			CHANNELS 3 Xrotation Yrotation Zrotation
			JOINT newVegas:RightLeg
			{
				OFFSET 0.018946 -31.938133 0.493100
				CHANNELS 3 Xrotation Yrotation Zrotation
				JOINT newVegas:RightFoot
				{
					OFFSET -0.018946 -31.938126 -4.336299
					CHANNELS 3 Xrotation Yrotation Zrotation
					JOINT newVegas:RightToeBase
					{
						OFFSET -0.943001 -26.722004 15.023500
						CHANNELS 3 Xrotation Yrotation Zrotation
						End Site
						{
							OFFSET 0.000000 30.670187 0.000000
						}
					}
				}
				JOINT newVegas:Right_PantLeg
				{
					OFFSET -0.661674 -9.044716 -1.108900
					CHANNELS 3 Xrotation Yrotation Zrotation
					End Site
					{
						OFFSET -1.415958 20.635269 0.000000
					}
				}
			}
		}
	}
	JOINT newVegas:Spine
	{
		OFFSET 0.000000 10.199997 -0.299500
		CHANNELS 3 Xrotation Yrotation Zrotation
		JOINT newVegas:Spine1
		{
			OFFSET 0.000000 11.900002 -1.516600
			CHANNELS 3 Xrotation Yrotation Zrotation
			JOINT newVegas:Spine2
			{
				OFFSET 0.000000 13.600006 -2.842500
				CHANNELS 3 Xrotation Yrotation Zrotation
				JOINT newVegas:Neck
				{
					OFFSET 0.000000 9.624100 -2.890100
					CHANNELS 3 Xrotation Yrotation Zrotation
					JOINT newVegas:Head
					{
						OFFSET 0.000000 14.068802 -1.351900
						CHANNELS 3 Xrotation Yrotation Zrotation
						JOINT newVegas:Hair_Back
						{
							OFFSET 0.000000 3.231903 -17.524799
							CHANNELS 3 Xrotation Yrotation Zrotation
							End Site
							{
								OFFSET 0.000000 19.849884 0.000000
							}
						}
						JOINT newVegas:Hair_Front
						{
							OFFSET 0.000000 31.260406 4.573800
							CHANNELS 3 Xrotation Yrotation Zrotation
							JOINT newVegas:Hair_Front1
							{
								OFFSET 0.000000 2.284103 11.993300
								CHANNELS 3 Xrotation Yrotation Zrotation
								JOINT newVegas:Hair_Front2
								{
									OFFSET 0.000000 2.284103 11.993300
									CHANNELS 3 Xrotation Yrotation Zrotation
									End Site
									{
										OFFSET 0.000000 12.208862 0.000000
									}
								}
							}
						}
						JOINT newVegas:Jowel
						{
							OFFSET 0.000000 -7.458206 6.864100
							CHANNELS 3 Xrotation Yrotation Zrotation
							End Site
							{
								OFFSET 0.000000 19.849884 0.000000
							}
						}
					}
				}
				JOINT newVegas:LeftShoulder
				{
					OFFSET 15.263000 10.923401 -0.547700
					CHANNELS 3 Xrotation Yrotation Zrotation
					JOINT newVegas:LeftArm
					{
						OFFSET 25.438599 -2.830597 -13.032500
						CHANNELS 3 Xrotation Yrotation Zrotation
						JOINT newVegas:LeftForeArm
						{
							OFFSET 29.960503 0.000000 0.000000
							CHANNELS 3 Xrotation Yrotation Zrotation
							JOINT newVegas:LeftHand
							{
								OFFSET 27.849251 0.000000 0.000000
								CHANNELS 3 Xrotation Yrotation Zrotation
								JOINT newVegas:LeftHandThumb1
								{
									OFFSET 4.487587 -3.305161 6.305391
									CHANNELS 3 Xrotation Yrotation Zrotation
									JOINT newVegas:LeftHandThumb2
									{
										OFFSET 5.480453 -3.164139 3.164143
										CHANNELS 3 Xrotation Yrotation Zrotation
										JOINT newVegas:LeftHandThumb3
										{
											OFFSET 5.159721 -2.978973 2.978967
											CHANNELS 3 Xrotation Yrotation Zrotation
											End Site
											{
												OFFSET 2.494507 5.926697 1.738678
											}
										}
									}
								}
								JOINT newVegas:LeftHandIndex1
								{
									OFFSET 18.578728 -0.527832 5.208049
									CHANNELS 3 Xrotation Yrotation Zrotation
									JOINT newVegas:LeftHandIndex2
									{
										OFFSET 3.192009 0.000000 0.000000
										CHANNELS 3 Xrotation Yrotation Zrotation
										JOINT newVegas:LeftHandIndex3
										{
											OFFSET 3.835129 0.000000 0.000000
											CHANNELS 3 Xrotation Yrotation Zrotation
											End Site
											{
												OFFSET -0.034599 3.816971 0.371180
											}
										}
									}
								}
								JOINT newVegas:LeftHandMiddle1
								{
									OFFSET 18.476105 0.000000 0.000000
									CHANNELS 3 Xrotation Yrotation Zrotation
									JOINT newVegas:LeftHandMiddle2
									{
										OFFSET 3.324875 0.000000 0.000000
										CHANNELS 3 Xrotation Yrotation Zrotation
										JOINT newVegas:LeftHandMiddle3
										{
											OFFSET 4.596550 0.000000 0.000000
											CHANNELS 3 Xrotation Yrotation Zrotation
											End Site
											{
												OFFSET 0.057701 4.578827 0.399218
											}
										}
									}
								}
								JOINT newVegas:LeftHandRing1
								{
									OFFSET 17.732719 0.121887 -4.201567
									CHANNELS 3 Xrotation Yrotation Zrotation
									JOINT newVegas:LeftHandRing2
									{
										OFFSET 2.733170 0.000000 0.000000
										CHANNELS 3 Xrotation Yrotation Zrotation
										JOINT newVegas:LeftHandRing3
										{
											OFFSET 3.178268 0.000000 0.000000
											CHANNELS 3 Xrotation Yrotation Zrotation
											End Site
											{
												OFFSET 0.119102 3.170624 0.185394
											}
										}
									}
								}
								JOINT newVegas:LeftHandPinky1
								{
									OFFSET 15.989624 -0.606689 -7.535461
									CHANNELS 3 Xrotation Yrotation Zrotation
									JOINT newVegas:LeftHandPinky2
									{
										OFFSET 2.538986 0.000000 0.000000
										CHANNELS 3 Xrotation Yrotation Zrotation
										JOINT newVegas:LeftHandPinky3
										{
											OFFSET 2.593102 0.000000 0.000000
											CHANNELS 3 Xrotation Yrotation Zrotation
											End Site
											{
												OFFSET -0.150902 2.584198 0.152708
											}
										}
									}
								}
							}
							JOINT newVegas:Left_Sleeve
							{
								OFFSET 0.267448 -0.649796 0.577675
								CHANNELS 3 Xrotation Yrotation Zrotation
								End Site
								{
									OFFSET 0.000000 15.991241 0.000000
								}
							}
							JOINT newVegas:Left_CapeC
							{
								OFFSET 15.715958 -8.608795 -6.935905
								CHANNELS 3 Xrotation Yrotation Zrotation
								JOINT newVegas:Left_CapeC1
								{
									OFFSET 0.000000 -8.688499 0.000000
									CHANNELS 3 Xrotation Yrotation Zrotation
									End Site
									{
										OFFSET 0.000000 8.688499 0.000000
									}
								}
							}
						}
						JOINT newVegas:Left_CapeB
						{
							OFFSET 26.118385 -8.608795 -7.079235
							CHANNELS 3 Xrotation Yrotation Zrotation
							JOINT newVegas:Left_CapeB1
							{
								OFFSET 0.000000 -8.688499 0.000000
								CHANNELS 3 Xrotation Yrotation Zrotation
								End Site
								{
									OFFSET 0.000000 8.688499 0.000000
								}
							}
						}
						JOINT newVegas:Left_CapeA
						{
							OFFSET 5.115639 -8.608795 -10.395809
							CHANNELS 3 Xrotation Yrotation Zrotation
							JOINT newVegas:Left_CapeA1
							{
								OFFSET 0.000000 -8.688499 0.000000
								CHANNELS 3 Xrotation Yrotation Zrotation
								End Site
								{
									OFFSET 0.000000 8.688499 0.000000
								}
							}
						}
					}
				}
				JOINT newVegas:RightShoulder
				{
					OFFSET -15.263000 10.923401 -0.547700
					CHANNELS 3 Xrotation Yrotation Zrotation
					JOINT newVegas:RightArm
					{
						OFFSET -25.438599 -2.830597 -13.032500
						CHANNELS 3 Xrotation Yrotation Zrotation
						JOINT newVegas:RightForeArm
						{
							OFFSET -29.960503 0.000000 0.000000
							CHANNELS 3 Xrotation Yrotation Zrotation
							JOINT newVegas:RightHand
							{
								OFFSET -27.849251 0.000000 0.000000
								CHANNELS 3 Xrotation Yrotation Zrotation
								JOINT newVegas:RightHandThumb1
								{
									OFFSET -4.487587 -3.305161 6.305391
									CHANNELS 3 Xrotation Yrotation Zrotation
									JOINT newVegas:RightHandThumb2
									{
										OFFSET -5.480453 -3.164139 3.164143
										CHANNELS 3 Xrotation Yrotation Zrotation
										JOINT newVegas:RightHandThumb3
										{
											OFFSET -5.159721 -2.978973 2.978967
											CHANNELS 3 Xrotation Yrotation Zrotation
											End Site
											{
												OFFSET -2.494507 5.926697 1.738678
											}
										}
									}
								}
								JOINT newVegas:RightHandIndex1
								{
									OFFSET -18.578728 -0.527832 5.208049
									CHANNELS 3 Xrotation Yrotation Zrotation
									JOINT newVegas:RightHandIndex2
									{
										OFFSET -3.192009 0.000000 0.000000
										CHANNELS 3 Xrotation Yrotation Zrotation
										JOINT newVegas:RightHandIndex3
										{
											OFFSET -3.835129 0.000000 0.000000
											CHANNELS 3 Xrotation Yrotation Zrotation
											End Site
											{
												OFFSET 0.034599 3.816971 0.371180
											}
										}
									}
								}
								JOINT newVegas:RightHandMiddle1
								{
									OFFSET -18.476105 0.000000 0.000000
									CHANNELS 3 Xrotation Yrotation Zrotation
									JOINT newVegas:RightHandMiddle2
									{
										OFFSET -3.324875 0.000000 0.000000
										CHANNELS 3 Xrotation Yrotation Zrotation
										JOINT newVegas:RightHandMiddle3
										{
											OFFSET -4.596550 0.000000 0.000000
											CHANNELS 3 Xrotation Yrotation Zrotation
											End Site
											{
												OFFSET -0.057701 4.578827 0.399218
											}
										}
									}
								}
								JOINT newVegas:RightHandRing1
								{
									OFFSET -17.732719 0.121887 -4.201567
									CHANNELS 3 Xrotation Yrotation Zrotation
									JOINT newVegas:RightHandRing2
									{
										OFFSET -2.733170 0.000000 0.000000
										CHANNELS 3 Xrotation Yrotation Zrotation
										JOINT newVegas:RightHandRing3
										{
											OFFSET -3.178268 0.000000 0.000000
											CHANNELS 3 Xrotation Yrotation Zrotation
											End Site
											{
												OFFSET -0.119102 3.170624 0.185394
											}
										}
									}
								}
								JOINT newVegas:RightHandPinky1
								{
									OFFSET -15.989624 -0.606689 -7.535461
									CHANNELS 3 Xrotation Yrotation Zrotation
									JOINT newVegas:RightHandPinky2
									{
										OFFSET -2.538986 0.000000 0.000000
										CHANNELS 3 Xrotation Yrotation Zrotation
										JOINT newVegas:RightHandPinky3
										{
											OFFSET -2.593102 0.000000 0.000000
											CHANNELS 3 Xrotation Yrotation Zrotation
											End Site
											{
												OFFSET 0.150902 2.584198 0.152708
											}
										}
									}
								}
							}
							JOINT newVegas:Right_CapeC
							{
								OFFSET -15.715958 -8.608795 -6.935905
								CHANNELS 3 Xrotation Yrotation Zrotation
								JOINT newVegas:Right_CapeC1
								{
									OFFSET 0.000000 -8.688499 0.000000
									CHANNELS 3 Xrotation Yrotation Zrotation
									End Site
									{
										OFFSET 0.000000 8.688499 0.000000
									}
								}
							}
							JOINT newVegas:Right_Sleeve
							{
								OFFSET -0.267448 -0.649994 0.577675
								CHANNELS 3 Xrotation Yrotation Zrotation
								End Site
								{
									OFFSET 0.000000 15.991302 0.000000
								}
							}
						}
						JOINT newVegas:Right_CapeA
						{
							OFFSET -5.115540 -8.608795 -10.395824
							CHANNELS 3 Xrotation Yrotation Zrotation
							JOINT newVegas:Right_CapeA1
							{
								OFFSET 0.000000 -8.688499 0.000000
								CHANNELS 3 Xrotation Yrotation Zrotation
								End Site
								{
									OFFSET 0.000000 8.688499 0.000000
								}
							}
						}
						JOINT newVegas:Right_CapeB
						{
							OFFSET -26.118187 -8.608795 -7.079266
							CHANNELS 3 Xrotation Yrotation Zrotation
							JOINT newVegas:Right_CapeB1
							{
								OFFSET 0.000000 -8.688499 0.000000
								CHANNELS 3 Xrotation Yrotation Zrotation
								End Site
								{
									OFFSET 0.000000 8.688499 0.000000
								}
							}
						}
					}
				}
				JOINT newVegas:Left_Collar
				{
					OFFSET 18.625099 8.655502 8.828100
					CHANNELS 3 Xrotation Yrotation Zrotation
					JOINT newVegas:Left_Collar1
					{
						OFFSET 14.783401 10.540405 -1.259500
						CHANNELS 3 Xrotation Yrotation Zrotation
						End Site
						{
							OFFSET 0.000000 18.199875 0.000000
						}
					}
				}
				JOINT newVegas:Collar_Back
				{
					OFFSET 0.000000 15.630707 -20.132601
					CHANNELS 3 Xrotation Yrotation Zrotation
					End Site
					{
						OFFSET 0.000000 22.523010 0.000000
					}
				}
				JOINT newVegas:Left_Peck
				{
					OFFSET 17.239599 -5.132599 25.482599
					CHANNELS 3 Xrotation Yrotation Zrotation
					End Site
					{
						OFFSET 0.000000 22.523010 0.000000
					}
				}
				JOINT newVegas:Right_Peck
				{
					OFFSET -17.239599 -5.132202 25.482599
					CHANNELS 3 Xrotation Yrotation Zrotation
					End Site
					{
						OFFSET 0.000000 22.523010 0.000000
					}
				}
				JOINT newVegas:Right_Collar
				{
					OFFSET -18.625099 8.655792 8.828100
					CHANNELS 3 Xrotation Yrotation Zrotation
					JOINT newVegas:Right_Collar1
					{
						OFFSET -14.783401 10.539993 -1.259500
						CHANNELS 3 Xrotation Yrotation Zrotation
						End Site
						{
							OFFSET 0.000000 18.199631 0.000000
						}
					}
				}
			}
		}
		JOINT newVegas:Belly
		{
			OFFSET 0.000000 -6.540398 9.014299
			CHANNELS 3 Xrotation Yrotation Zrotation
			End Site
			{
				OFFSET 0.000000 11.566666 0.000000
			}
		}
	}
	JOINT newVegas:ElvisFacialAnim_Joint
	{
		OFFSET 1.000000 -95.330101 -8.825800
		CHANNELS 3 Xrotation Yrotation Zrotation
		End Site
		{
			OFFSET 0.000000 35.315800 0.000000
		}
	}
}
MOTION
Frames: 4
Frame Time: 0.033333
-6.951394 86.337967 13.658733 -182.871389 -141.486139 -171.104722 -0.000000 0.000000 -0.000000 -31.208719 -0.031154 2.932421 20.246559 -9.539069 -1.955855 6.925068 -8.944963 -13.769492 -0.000000 -0.000002 -0.000000 -0.000001 -0.000001 -0.000000 -5.166137 -17.048448 -27.326366 46.334173 -12.165331 -11.242485 -31.377462 -1.383849 0.494230 0.000002 0.000001 -0.000001 0.000003 0.000001 -0.000000 3.599876 5.942538 5.491748 4.415391 5.096246 4.016459 4.513491 4.804719 4.251234 5.485297 -0.547140 0.709378 5.485298 -0.547124 0.709371 0.000002 0.000000 -0.000002 5.485319 -0.547070 0.709353 5.485479 -0.547219 0.709383 -0.000000 0.000000 -0.000001 0.000002 0.000000 -0.000001 0.616713 -18.314819 -9.001843 -54.475878 -29.215523 -78.779860 0.000000 -25.756814 -0.000002 -93.514435 27.053099 -20.595262 2.333984 -4.852039 -3.963504 13.533756 36.265962 -6.789631 0.000002 0.000001 -0.000003 2.878060 7.353416 -58.659741 6.385724 5.826668 -95.251974 -0.000002 -0.000001 0.000004 2.878045 7.353377 -58.659727 6.420559 5.823365 -95.595341 -0.000000 0.000000 0.000003 3.051713 7.454230 -60.629745 5.249938 5.820190 -84.092907 -0.000001 0.000001 -0.000002 2.878033 7.353401 -58.659686 3.100872 5.166399 -61.922297 -0.000000 -0.000005 -0.000000 -0.000001 0.000000 -0.000004 -0.000001 0.000000 -0.000004 -0.000001 -0.000001 -0.000004 -0.000001 0.000001 -0.000002 -0.000001 -0.000000 -0.000003 -0.000001 0.000001 -0.000002 -0.000002 -0.000001 -0.000003 0.694758 26.746080 8.937758 -69.684650 47.644924 66.968243 0.000004 8.204438 -0.000007 -16.392118 -64.519483 10.755153 2.443865 6.918975 5.466437 7.799214 -26.707421 -3.033892 0.000001 0.000003 -0.000000 3.684949 -6.862807 68.588821 4.783593 -4.655459 91.557313 0.000000 -0.000001 -0.000001 2.862212 -6.649115 78.228902 5.913019 -4.484992 105.660602 0.000000 0.000000 -0.000001 3.024879 -6.632708 73.161995 5.513232 -4.577974 100.603509 0.000000 -0.000001 -0.000000 4.732109 -9.256722 56.111247 4.366255 -4.648072 86.414932 -0.000000 0.000002 0.000000 0.000000 0.000000 0.000000 0.000000 -0.000000 0.000000 0.000000 0.000000 0.000000 0.000002 0.000001 -0.000001 0.000002 0.000000 -0.000000 0.000002 0.000001 -0.000001 0.000002 -0.000000 -0.000000 -0.000000 0.000001 -0.000000 -0.000000 0.000001 -0.000000 -0.000000 0.000001 -0.000000 -0.000000 0.000001 -0.000000 -0.000000 0.000001 -0.000000 -0.000000 0.000001 -0.000000 -0.000000 0.000001 -0.000000 0.000001 -0.000000 -0.000001 -0.000000 0.000000 -0.000000 
-8.423799 86.100067 13.416739 -181.018864 -142.925479 -170.229474 -0.000000 0.000001 0.000000 -32.544847 -0.095970 3.924838 19.767382 -9.856784 -1.627890 7.049248 -9.647209 -14.831303 -0.000000 0.000002 0.000000 -0.000000 0.000001 0.000001 -5.339914 -16.079840 -26.759513 47.404467 -10.837091 -11.123973 -31.816333 -0.312214 2.528302 0.000003 -0.000001 0.000001 -0.000000 0.000002 -0.000001 3.600395 7.213578 4.327353 4.391711 6.361070 3.396247 4.493307 6.111705 3.679841 4.564743 -0.977969 1.509198 4.564750 -0.977973 1.509206 -0.000000 -0.000002 0.000001 4.564678 -0.977949 1.509200 4.564809 -0.978011 1.509214 -0.000001 -0.000001 -0.000003 -0.000000 -0.000002 -0.000001 -0.137830 -18.203670 -15.002227 -42.323674 -9.228008 -74.932298 -0.000000 -61.186904 -0.000016 -92.830733 1.574571 -26.135080 2.333980 -4.852038 -3.963479 13.533702 36.266180 -6.789578 0.000001 -0.000003 -0.000006 2.878215 7.353510 -58.660110 6.385787 5.826668 -95.252616 0.000003 -0.000001 -0.000001 2.878066 7.353397 -58.660041 6.420623 5.823353 -95.595983 -0.000001 0.000001 -0.000000 3.051722 7.454243 -60.629875 5.249997 5.820194 -84.093460 0.000001 0.000006 0.000003 2.877945 7.353364 -58.659734 3.100898 5.166412 -61.922611 0.000000 -0.000005 -0.000001 -0.000001 0.000001 0.000001 -0.000001 0.000001 0.000001 -0.000001 0.000001 0.000001 -0.000001 0.000001 -0.000001 -0.000001 0.000000 -0.000001 -0.000001 0.000001 -0.000001 -0.000002 -0.000000 0.000001 2.208362 28.354789 2.406936 -82.283262 58.138502 84.612377 0.000007 19.800432 -0.000020 6.638423 -49.216950 12.026369 2.472982 6.939453 5.875775 7.830607 -26.984746 -3.051980 0.000004 -0.000002 -0.000001 1.239755 -5.608466 59.655781 4.236134 -4.638132 84.807618 0.000003 -0.000001 -0.000001 2.238235 -6.312546 68.600719 5.273501 -4.616268 97.613314 -0.000003 -0.000000 -0.000000 3.279581 -6.753910 64.493044 4.904548 -4.650588 93.048029 -0.000003 -0.000001 0.000003 5.118956 -10.551532 49.819482 3.869367 -4.590166 80.250720 0.000002 -0.000000 0.000003 -0.000002 -0.000001 0.000003 -0.000002 -0.000002 0.000001 -0.000002 -0.000001 0.000001 -0.000001 0.000001 -0.000000 -0.000001 0.000001 -0.000000 -0.000001 0.000001 -0.000000 -0.000001 0.000001 -0.000000 -0.000000 0.000000 0.000000 -0.000000 0.000000 0.000000 -0.000000 0.000000 0.000000 -0.000000 0.000000 0.000000 -0.000000 0.000000 0.000000 -0.000000 0.000000 0.000000 -0.000000 0.000000 0.000000 0.000001 -0.000000 0.000000 -0.000000 0.000001 0.000000 
-10.078003 85.474289 13.327135 -179.315893 -147.394062 -170.217166 0.000000 0.000001 -0.000000 -36.055315 -0.500263 5.011370 20.381607 -9.781410 -1.567913 7.646194 -13.618122 -15.520264 -0.000000 0.000000 0.000000 -0.000000 0.000000 -0.000002 -1.966732 -17.970846 -24.652099 45.187183 -8.620556 -10.642247 -32.015750 -1.525932 5.091167 -0.000001 -0.000003 0.000001 0.000004 -0.000003 -0.000002 2.922629 9.049777 3.568652 3.720150 8.139932 2.844838 3.811743 7.943168 3.197702 3.821757 -1.611709 2.217200 3.821761 -1.611710 2.217223 0.000000 0.000000 0.000000 3.821770 -1.611695 2.217211 3.821764 -1.611694 2.217201 -0.000001 -0.000000 -0.000003 0.000000 0.000000 -0.000001 -0.395255 -18.273616 -17.267625 -41.459132 3.463245 -75.794336 -0.000051 -82.138673 -0.000053 -83.272246 -7.349097 -23.731887 2.333984 -4.852037 -3.963488 13.533728 36.265992 -6.789628 0.000002 0.000001 -0.000003 2.878088 7.353436 -58.659802 6.385726 5.826674 -95.252111 0.000001 -0.000000 0.000002 2.878038 7.353389 -58.659782 6.420564 5.823382 -95.595492 0.000002 -0.000001 0.000000 3.051712 7.454237 -60.629779 5.249955 5.820191 -84.093043 -0.000001 -0.000001 0.000001 2.878017 7.353406 -58.659693 3.100885 5.166397 -61.922379 -0.000001 -0.000005 0.000001 0.000001 -0.000001 -0.000001 0.000001 -0.000001 -0.000001 0.000001 -0.000001 -0.000002 0.000000 0.000004 -0.000001 0.000000 0.000003 -0.000002 0.000000 0.000004 -0.000001 0.000000 0.000003 -0.000001 3.884113 28.458717 -4.676157 -89.341169 53.010365 94.542406 0.000012 42.357138 -0.000006 10.016754 -33.118409 6.261870 2.568092 6.997746 7.109408 7.925753 -27.822895 -3.105624 0.000001 -0.000000 -0.000001 -3.197973 1.290439 33.774763 2.669950 -4.212755 64.717231 0.000004 -0.000003 0.000001 0.778684 -4.848616 40.094607 3.346793 -4.469379 73.641092 -0.000001 -0.000002 -0.000001 3.316949 -7.973965 38.723071 3.108174 -4.392562 70.553334 -0.000000 -0.000003 -0.000001 4.389544 -15.116317 30.741869 2.454687 -4.104437 61.749623 -0.000000 -0.000002 -0.000000 0.000000 -0.000004 -0.000000 -0.000000 -0.000000 0.000003 -0.000000 -0.000003 -0.000001 -0.000000 0.000001 0.000002 0.000000 0.000002 0.000002 -0.000000 0.000001 0.000002 0.000000 0.000002 0.000002 0.000000 0.000000 -0.000003 0.000000 0.000000 -0.000003 0.000000 0.000000 -0.000003 0.000000 0.000000 -0.000003 0.000000 0.000000 -0.000003 0.000000 0.000000 -0.000003 0.000000 0.000000 -0.000003 0.000000 0.000001 0.000000 0.000000 0.000001 -0.000000 
-11.912771 84.835487 13.363087 -178.594912 -153.857114 -171.203650 -0.000000 -0.000002 0.000001 -39.124246 -1.500173 5.434974 19.662110 -9.578630 -1.340833 9.256031 -19.118342 -16.387255 -0.000000 0.000001 0.000000 0.000000 0.000000 0.000002 4.699462 -20.624967 -20.110901 40.762258 -7.054786 -8.860281 -32.425302 -2.174608 5.543975 -0.000001 -0.000000 -0.000001 0.000002 0.000000 -0.000004 1.967094 10.691638 3.085145 2.788797 9.635338 2.326070 2.849316 9.491730 2.742169 3.674888 -2.193093 2.661771 3.674886 -2.193093 2.661774 -0.000000 0.000000 0.000000 3.674883 -2.193091 2.661773 3.674972 -2.193093 2.661776 -0.000001 0.000000 -0.000000 -0.000000 0.000000 0.000002 -0.281775 -18.018807 -16.533777 -47.577578 13.979212 -70.811173 -0.000365 -88.077980 -0.000395 -73.839980 -13.900640 -10.608611 2.334026 -4.852081 -3.963560 13.533810 36.265128 -6.789801 0.000001 0.000000 -0.000006 2.877551 7.353109 -58.658382 6.385503 5.826696 -95.249754 -0.000001 -0.000001 -0.000001 2.877950 7.353330 -58.658607 6.420331 5.823379 -95.593128 -0.000001 -0.000000 0.000001 3.051675 7.454204 -60.629315 5.249756 5.820176 -84.091083 -0.000001 -0.000001 -0.000001 2.878288 7.353646 -58.659495 3.100752 5.166350 -61.921197 0.000000 -0.000002 0.000000 0.000000 -0.000000 0.000000 0.000000 -0.000000 0.000000 -0.000001 -0.000000 0.000000 0.000000 0.000001 -0.000000 0.000000 0.000000 -0.000000 0.000000 0.000001 -0.000000 0.000000 0.000000 -0.000001 4.610923 27.673334 -8.609175 -112.777843 38.819626 115.196058 0.000008 10.477483 -0.000008 8.088185 9.275535 5.326905 2.704586 7.064497 8.671425 8.047779 -28.889569 -3.171517 -0.000003 -0.000003 0.000001 -0.112311 12.618632 1.481620 1.055967 -2.955009 39.321478 0.000002 0.000001 -0.000001 0.043486 -2.398912 4.349878 1.270173 -3.198327 43.310837 -0.000002 0.000001 -0.000001 0.883372 -10.019591 6.087593 1.203901 -3.126668 42.109718 -0.000002 0.000002 -0.000002 -1.200818 -20.476265 5.708019 1.005943 -2.892937 38.341021 -0.000000 0.000005 0.000001 0.000001 0.000000 0.000004 0.000001 0.000002 0.000003 0.000001 0.000000 0.000003 -0.000003 -0.000001 0.000000 -0.000002 -0.000001 -0.000000 -0.000003 -0.000001 0.000000 -0.000002 -0.000001 0.000001 0.000000 0.000000 0.000001 0.000000 0.000000 0.000001 0.000000 0.000000 0.000001 0.000000 0.000000 0.000001 0.000000 0.000000 0.000001 0.000000 0.000000 0.000001 0.000000 0.000000 0.000001 -0.000000 0.000000 0.000001 -0.000000 -0.000002 0.000001 
